<mxfile host="app.diagrams.net" agent="Mozilla/5.0 (Macintosh; Intel Mac OS X 10_15_7) AppleWebKit/537.36 (KHTML, like Gecko) Chrome/133.0.0.0 Safari/537.36" version="26.1.0">
  <diagram name="Page-1" id="UC7BrD_xaiYGVdwc321j">
    <mxGraphModel dx="1323" dy="865" grid="1" gridSize="10" guides="1" tooltips="1" connect="1" arrows="1" fold="1" page="1" pageScale="1" pageWidth="1100" pageHeight="850" math="0" shadow="0">
      <root>
        <mxCell id="0" />
        <mxCell id="1" parent="0" />
        <mxCell id="Gm0eFK5Tj1ynwDgPu61h-108" value="&lt;h1&gt;&lt;br&gt;&lt;/h1&gt;" style="rounded=0;whiteSpace=wrap;html=1;strokeWidth=0;fillColor=#eeeeee;strokeColor=#36393d;" vertex="1" parent="1">
          <mxGeometry x="10" y="110" width="1080" height="650" as="geometry" />
        </mxCell>
        <mxCell id="Gm0eFK5Tj1ynwDgPu61h-65" value="&lt;b&gt;&lt;font style=&quot;color: rgb(255, 255, 255);&quot;&gt;Payment Processing Systems&lt;/font&gt;&lt;/b&gt;&lt;div&gt;&lt;font style=&quot;color: rgb(230, 230, 230);&quot;&gt;Transaction Source&lt;/font&gt;&lt;/div&gt;" style="rounded=1;whiteSpace=wrap;html=1;fillColor=light-dark(#00695C,#FFFFFF);strokeColor=#6600CC;strokeWidth=2;labelPosition=center;verticalLabelPosition=middle;align=center;verticalAlign=middle;" vertex="1" parent="1">
          <mxGeometry x="17" y="260" width="138.42" height="120" as="geometry" />
        </mxCell>
        <mxCell id="Gm0eFK5Tj1ynwDgPu61h-67" value="&lt;b&gt;&lt;font style=&quot;color: rgb(255, 255, 255);&quot;&gt;Payment Processing Systems&lt;/font&gt;&lt;/b&gt;&lt;div&gt;&lt;font style=&quot;color: rgb(230, 230, 230);&quot;&gt;Transaction Source&lt;/font&gt;&lt;/div&gt;" style="rounded=1;whiteSpace=wrap;html=1;fillColor=light-dark(#465064,#FFFFFF);strokeColor=#6600CC;strokeWidth=2;labelPosition=center;verticalLabelPosition=middle;align=center;verticalAlign=middle;" vertex="1" parent="1">
          <mxGeometry x="17" y="560" width="138.42" height="120" as="geometry" />
        </mxCell>
        <mxCell id="Gm0eFK5Tj1ynwDgPu61h-58" value="" style="endArrow=classic;html=1;rounded=1;strokeColor=light-dark(#666666,#666666);strokeWidth=2;labelPosition=center;verticalLabelPosition=top;align=center;verticalAlign=bottom;" edge="1" parent="1">
          <mxGeometry width="50" height="50" relative="1" as="geometry">
            <mxPoint x="150" y="289" as="sourcePoint" />
            <mxPoint x="239" y="288.5" as="targetPoint" />
          </mxGeometry>
        </mxCell>
        <mxCell id="Gm0eFK5Tj1ynwDgPu61h-59" value="Transactions" style="edgeLabel;html=1;align=center;verticalAlign=bottom;resizable=0;points=[];rounded=1;labelPosition=center;verticalLabelPosition=top;labelBackgroundColor=#E6E6E6;" vertex="1" connectable="0" parent="Gm0eFK5Tj1ynwDgPu61h-58">
          <mxGeometry x="0.156" relative="1" as="geometry">
            <mxPoint x="-14" y="1" as="offset" />
          </mxGeometry>
        </mxCell>
        <mxCell id="Gm0eFK5Tj1ynwDgPu61h-109" value="&lt;h1 style=&quot;forced-color-adjust: none;&quot;&gt;Card Alert Interface:&amp;nbsp; System Architecture&lt;/h1&gt;&lt;div style=&quot;forced-color-adjust: none;&quot;&gt;&lt;br style=&quot;forced-color-adjust: none; color: rgb(0, 0, 0); font-family: Helvetica; font-style: normal; font-variant-ligatures: normal; font-variant-caps: normal; font-weight: 400; letter-spacing: normal; orphans: 2; text-align: center; text-indent: 0px; text-transform: none; widows: 2; word-spacing: 0px; -webkit-text-stroke-width: 0px; white-space: normal; background-color: rgb(251, 251, 251); text-decoration-thickness: initial; text-decoration-style: initial; text-decoration-color: initial;&quot;&gt;&lt;/div&gt;" style="text;strokeColor=none;fillColor=none;html=1;fontSize=15;fontStyle=1;verticalAlign=middle;align=center;" vertex="1" parent="1">
          <mxGeometry x="510" y="130" width="100" height="40" as="geometry" />
        </mxCell>
        <mxCell id="Gm0eFK5Tj1ynwDgPu61h-51" value="&lt;h1&gt;Card Alert Interface&lt;/h1&gt;&lt;div&gt;&lt;br&gt;&lt;/div&gt;&lt;div&gt;&lt;br&gt;&lt;/div&gt;&lt;div&gt;&lt;br&gt;&lt;/div&gt;&lt;div&gt;&lt;br&gt;&lt;/div&gt;&lt;div&gt;&lt;br&gt;&lt;/div&gt;&lt;div&gt;&lt;br&gt;&lt;/div&gt;&lt;div&gt;&lt;br&gt;&lt;/div&gt;&lt;div&gt;&lt;br&gt;&lt;/div&gt;&lt;div&gt;&lt;br&gt;&lt;/div&gt;&lt;div&gt;&lt;br&gt;&lt;/div&gt;&lt;div&gt;&lt;br&gt;&lt;/div&gt;&lt;div&gt;&lt;br&gt;&lt;/div&gt;&lt;div&gt;&lt;br&gt;&lt;/div&gt;&lt;div&gt;&lt;br&gt;&lt;/div&gt;&lt;div&gt;&lt;br&gt;&lt;/div&gt;&lt;div&gt;&lt;br&gt;&lt;/div&gt;&lt;div&gt;&lt;br&gt;&lt;/div&gt;&lt;div&gt;&lt;br&gt;&lt;/div&gt;&lt;div&gt;&lt;br&gt;&lt;/div&gt;&lt;div&gt;&lt;br&gt;&lt;/div&gt;&lt;div&gt;&lt;br&gt;&lt;/div&gt;&lt;div&gt;&lt;br&gt;&lt;/div&gt;&lt;div&gt;&lt;br&gt;&lt;/div&gt;&lt;div&gt;&lt;br&gt;&lt;/div&gt;&lt;div&gt;&lt;br&gt;&lt;/div&gt;&lt;div&gt;&lt;br&gt;&lt;/div&gt;&lt;div&gt;&lt;br&gt;&lt;/div&gt;&lt;div&gt;&lt;br&gt;&lt;/div&gt;&lt;div&gt;&lt;br&gt;&lt;/div&gt;&lt;div&gt;&lt;br&gt;&lt;/div&gt;" style="whiteSpace=wrap;html=1;rounded=1;strokeWidth=2;dashed=1;" vertex="1" parent="1">
          <mxGeometry x="210" y="187.5" width="870" height="495" as="geometry" />
        </mxCell>
        <mxCell id="Gm0eFK5Tj1ynwDgPu61h-5" value="" style="group;fillColor=default;strokeColor=#006EAF;fontColor=#ffffff;strokeWidth=2;rounded=1;" vertex="1" connectable="0" parent="1">
          <mxGeometry x="239" y="250" width="200" height="100" as="geometry" />
        </mxCell>
        <mxCell id="Gm0eFK5Tj1ynwDgPu61h-1" value="&lt;b&gt;Data Collection&amp;nbsp;&lt;/b&gt;&lt;div&gt;&lt;ul&gt;&lt;li style=&quot;text-align: left;&quot;&gt;Transaction Monitoring&lt;/li&gt;&lt;li style=&quot;text-align: left;&quot;&gt;Data Nomalization&lt;/li&gt;&lt;li style=&quot;text-align: left;&quot;&gt;Real-time Processing&lt;/li&gt;&lt;/ul&gt;&lt;/div&gt;" style="rounded=1;whiteSpace=wrap;html=1;fillColor=light-dark(#A7C7F7,#FFFFFF);strokeColor=#003366;strokeWidth=2;labelPosition=center;verticalLabelPosition=middle;align=center;verticalAlign=middle;" vertex="1" parent="Gm0eFK5Tj1ynwDgPu61h-5">
          <mxGeometry width="200" height="100" as="geometry" />
        </mxCell>
        <mxCell id="Gm0eFK5Tj1ynwDgPu61h-2" value="1" style="ellipse;whiteSpace=wrap;html=1;aspect=fixed;fillColor=light-dark(#3F51B5,#3F51B5);fontColor=light-dark(#FFFFFF,#FFFFFF);rounded=1;" vertex="1" parent="Gm0eFK5Tj1ynwDgPu61h-5">
          <mxGeometry x="6" y="4" width="30" height="30" as="geometry" />
        </mxCell>
        <mxCell id="Gm0eFK5Tj1ynwDgPu61h-6" value="" style="group;fillColor=light-dark(#FFFFFF,#D4C4F7);" vertex="1" connectable="0" parent="1">
          <mxGeometry x="549" y="250" width="310" height="124" as="geometry" />
        </mxCell>
        <mxCell id="Gm0eFK5Tj1ynwDgPu61h-7" value="&lt;b style=&quot;text-align: left; background-color: transparent; color: light-dark(rgb(0, 0, 0), rgb(255, 255, 255));&quot;&gt;&amp;nbsp; &amp;nbsp; &amp;nbsp; &amp;nbsp;Analysis &amp;amp; Detection&lt;/b&gt;&lt;br&gt;&lt;ul&gt;&lt;li style=&quot;text-align: left;&quot;&gt;Pattern Recognition&lt;/li&gt;&lt;li style=&quot;text-align: left;&quot;&gt;Fraud Signatures&lt;/li&gt;&lt;li style=&quot;text-align: left;&quot;&gt;Anomaly Detection&lt;/li&gt;&lt;li style=&quot;text-align: left;&quot;&gt;Alert Notification&lt;br&gt;&lt;/li&gt;&lt;/ul&gt;" style="rounded=1;whiteSpace=wrap;html=1;fillColor=#dae8fc;strokeColor=#6600CC;strokeWidth=2;labelPosition=center;verticalLabelPosition=middle;align=center;verticalAlign=middle;" vertex="1" parent="Gm0eFK5Tj1ynwDgPu61h-6">
          <mxGeometry width="200" height="120" as="geometry" />
        </mxCell>
        <mxCell id="Gm0eFK5Tj1ynwDgPu61h-8" value="2" style="ellipse;whiteSpace=wrap;html=1;aspect=fixed;fillColor=light-dark(#673AB7,#673AB7);fontColor=light-dark(#FFFFFF,#FFFFFF);rounded=1;" vertex="1" parent="Gm0eFK5Tj1ynwDgPu61h-6">
          <mxGeometry x="6" y="4" width="30" height="30" as="geometry" />
        </mxCell>
        <mxCell id="Gm0eFK5Tj1ynwDgPu61h-13" value="" style="endArrow=classic;html=1;rounded=1;strokeColor=light-dark(#666666,#666666);strokeWidth=2;" edge="1" parent="Gm0eFK5Tj1ynwDgPu61h-6">
          <mxGeometry width="50" height="50" relative="1" as="geometry">
            <mxPoint x="200" y="30" as="sourcePoint" />
            <mxPoint x="289" y="30" as="targetPoint" />
          </mxGeometry>
        </mxCell>
        <mxCell id="Gm0eFK5Tj1ynwDgPu61h-9" value="" style="group;fillColor=default;" vertex="1" connectable="0" parent="1">
          <mxGeometry x="839" y="250" width="200" height="120" as="geometry" />
        </mxCell>
        <mxCell id="Gm0eFK5Tj1ynwDgPu61h-10" value="&lt;b style=&quot;text-align: left; background-color: transparent; color: light-dark(rgb(0, 0, 0), rgb(255, 255, 255));&quot;&gt;&amp;nbsp; &amp;nbsp; &amp;nbsp;Alert Generation&lt;/b&gt;&lt;br&gt;&lt;ul&gt;&lt;li style=&quot;text-align: left;&quot;&gt;Risk Scorng&lt;/li&gt;&lt;li style=&quot;text-align: left;&quot;&gt;Alert Enrichment&lt;/li&gt;&lt;li style=&quot;text-align: left;&quot;&gt;Notification&lt;/li&gt;&lt;/ul&gt;" style="rounded=1;whiteSpace=wrap;html=1;fillColor=light-dark(#FEEEB7,#FEEEB7);strokeColor=#6600CC;strokeWidth=2;labelPosition=center;verticalLabelPosition=middle;align=center;verticalAlign=middle;" vertex="1" parent="Gm0eFK5Tj1ynwDgPu61h-9">
          <mxGeometry width="200" height="100" as="geometry" />
        </mxCell>
        <mxCell id="Gm0eFK5Tj1ynwDgPu61h-11" value="3" style="ellipse;whiteSpace=wrap;html=1;aspect=fixed;fillColor=light-dark(#FFA000,#FFA000);fontColor=light-dark(#FFFFFF,#FFFFFF);rounded=1;" vertex="1" parent="Gm0eFK5Tj1ynwDgPu61h-9">
          <mxGeometry x="6" y="4" width="30" height="30" as="geometry" />
        </mxCell>
        <mxCell id="Gm0eFK5Tj1ynwDgPu61h-12" value="" style="endArrow=classic;html=1;rounded=1;exitX=1.005;exitY=0.38;exitDx=0;exitDy=0;exitPerimeter=0;strokeColor=light-dark(#666666,#666666);strokeWidth=2;" edge="1" parent="1">
          <mxGeometry width="50" height="50" relative="1" as="geometry">
            <mxPoint x="440" y="282" as="sourcePoint" />
            <mxPoint x="549" y="281" as="targetPoint" />
          </mxGeometry>
        </mxCell>
        <mxCell id="Gm0eFK5Tj1ynwDgPu61h-14" value="" style="endArrow=classic;html=1;rounded=1;strokeWidth=2;" edge="1" parent="1">
          <mxGeometry width="50" height="50" relative="1" as="geometry">
            <mxPoint x="938.5" y="350" as="sourcePoint" />
            <mxPoint x="939" y="390" as="targetPoint" />
          </mxGeometry>
        </mxCell>
        <mxCell id="Gm0eFK5Tj1ynwDgPu61h-27" value="" style="group;fillColor=light-dark(#FFFFFF,#FFFFFF);strokeWidth=2;strokeColor=light-dark(#666666,#666666);rounded=1;" vertex="1" connectable="0" parent="1">
          <mxGeometry x="558" y="390" width="481" height="150" as="geometry" />
        </mxCell>
        <mxCell id="Gm0eFK5Tj1ynwDgPu61h-16" value="&lt;b&gt;&lt;font&gt;Response &amp;amp; Feedback&lt;/font&gt;&lt;/b&gt;&lt;div&gt;&lt;br&gt;&lt;/div&gt;&lt;div&gt;&lt;br&gt;&lt;/div&gt;&lt;div&gt;&lt;br&gt;&lt;/div&gt;&lt;div&gt;&lt;br&gt;&lt;/div&gt;&lt;div&gt;&lt;br&gt;&lt;/div&gt;&lt;div&gt;&lt;br&gt;&lt;/div&gt;&lt;div&gt;&lt;br&gt;&lt;/div&gt;&lt;div&gt;&lt;br&gt;&lt;/div&gt;" style="rounded=1;whiteSpace=wrap;html=1;labelPosition=center;verticalLabelPosition=middle;align=center;verticalAlign=middle;fillColor=light-dark(#FFFFFF,#FFFFFF);strokeColor=#666666;strokeWidth=2;" vertex="1" parent="Gm0eFK5Tj1ynwDgPu61h-27">
          <mxGeometry width="481" height="150" as="geometry" />
        </mxCell>
        <mxCell id="Gm0eFK5Tj1ynwDgPu61h-17" value="" style="group;" vertex="1" connectable="0" parent="Gm0eFK5Tj1ynwDgPu61h-27">
          <mxGeometry x="311.17755102040815" y="50" width="141.35510204081632" height="100" as="geometry" />
        </mxCell>
        <mxCell id="Gm0eFK5Tj1ynwDgPu61h-18" value="&lt;b style=&quot;text-align: left; background-color: transparent; color: light-dark(rgb(0, 0, 0), rgb(255, 255, 255));&quot;&gt;Card Actions&lt;/b&gt;&lt;br&gt;&lt;ul&gt;&lt;li style=&quot;text-align: left;&quot;&gt;Block &amp;amp; Reissue&lt;/li&gt;&lt;/ul&gt;" style="rounded=1;whiteSpace=wrap;html=1;fillColor=light-dark(#FFCC99,#FFFFFF);strokeColor=#6600CC;strokeWidth=2;labelPosition=center;verticalLabelPosition=middle;align=center;verticalAlign=middle;" vertex="1" parent="Gm0eFK5Tj1ynwDgPu61h-17">
          <mxGeometry y="24.272727272727273" width="141.35510204081635" height="56.06363636363636" as="geometry" />
        </mxCell>
        <mxCell id="Gm0eFK5Tj1ynwDgPu61h-35" value="" style="endArrow=classic;html=1;rounded=1;exitX=-0.007;exitY=0.388;exitDx=0;exitDy=0;exitPerimeter=0;dashed=1;" edge="1" parent="Gm0eFK5Tj1ynwDgPu61h-17" source="Gm0eFK5Tj1ynwDgPu61h-18">
          <mxGeometry width="50" height="50" relative="1" as="geometry">
            <mxPoint x="104.54387755102042" y="35.15344827586209" as="sourcePoint" />
            <mxPoint x="-64.78775510204082" y="47.05" as="targetPoint" />
          </mxGeometry>
        </mxCell>
        <mxCell id="Gm0eFK5Tj1ynwDgPu61h-20" value="" style="group;" vertex="1" connectable="0" parent="Gm0eFK5Tj1ynwDgPu61h-27">
          <mxGeometry x="50.063265306122446" y="50" width="196.3265306122449" height="90" as="geometry" />
        </mxCell>
        <mxCell id="Gm0eFK5Tj1ynwDgPu61h-21" value="&lt;b style=&quot;background-color: transparent; color: light-dark(rgb(0, 0, 0), rgb(255, 255, 255));&quot;&gt;Case Management&lt;/b&gt;&lt;br&gt;&lt;ul&gt;&lt;li style=&quot;&quot;&gt;Investigaton Workflow&lt;/li&gt;&lt;/ul&gt;" style="rounded=1;whiteSpace=wrap;html=1;fillColor=light-dark(#D5EEF5,#FFFFFF);strokeColor=#6600CC;strokeWidth=2;labelPosition=center;verticalLabelPosition=middle;align=center;verticalAlign=middle;" vertex="1" parent="Gm0eFK5Tj1ynwDgPu61h-20">
          <mxGeometry x="25.832438238453275" y="20" width="170.4940923737916" height="60" as="geometry" />
        </mxCell>
        <mxCell id="Gm0eFK5Tj1ynwDgPu61h-23" value="4" style="ellipse;whiteSpace=wrap;html=1;aspect=fixed;fillColor=light-dark(#3F51B5,#3F51B5);fontColor=light-dark(#FFFFFF,#FFFFFF);rounded=1;" vertex="1" parent="Gm0eFK5Tj1ynwDgPu61h-27">
          <mxGeometry x="6.871428571428572" y="6" width="29.448979591836736" height="29.448979591836736" as="geometry" />
        </mxCell>
        <mxCell id="Gm0eFK5Tj1ynwDgPu61h-28" value="" style="group;strokeWidth=2;strokeColor=default;fillColor=default;rounded=1;" vertex="1" connectable="0" parent="1">
          <mxGeometry x="229" y="390" width="240" height="150" as="geometry" />
        </mxCell>
        <mxCell id="Gm0eFK5Tj1ynwDgPu61h-29" value="&lt;b&gt;&lt;font&gt;User interface&lt;/font&gt;&lt;/b&gt;&lt;div&gt;&lt;br&gt;&lt;/div&gt;&lt;div&gt;&lt;br&gt;&lt;/div&gt;&lt;div&gt;&lt;br&gt;&lt;/div&gt;&lt;div&gt;&lt;br&gt;&lt;/div&gt;&lt;div&gt;&lt;br&gt;&lt;/div&gt;&lt;div&gt;&lt;br&gt;&lt;/div&gt;&lt;div&gt;&lt;br&gt;&lt;/div&gt;&lt;div&gt;&lt;br&gt;&lt;/div&gt;" style="rounded=1;whiteSpace=wrap;html=1;labelPosition=center;verticalLabelPosition=middle;align=center;verticalAlign=middle;fillColor=light-dark(#D1E7DD,#FFFFFF);strokeColor=#198754;strokeWidth=2;" vertex="1" parent="Gm0eFK5Tj1ynwDgPu61h-28">
          <mxGeometry width="240" height="150" as="geometry" />
        </mxCell>
        <mxCell id="Gm0eFK5Tj1ynwDgPu61h-32" value="" style="group;fillColor=#D1E7DD;" vertex="1" connectable="0" parent="Gm0eFK5Tj1ynwDgPu61h-28">
          <mxGeometry x="44.568" y="30" width="168" height="110" as="geometry" />
        </mxCell>
        <mxCell id="Gm0eFK5Tj1ynwDgPu61h-33" value="&lt;b style=&quot;background-color: transparent; color: light-dark(rgb(0, 0, 0), rgb(255, 255, 255));&quot;&gt;Fraud Analyst&amp;nbsp;&lt;/b&gt;&lt;br&gt;&lt;ul&gt;&lt;li style=&quot;text-align: left;&quot;&gt;Web interface&lt;/li&gt;&lt;li style=&quot;text-align: left;&quot;&gt;Alert/Case Management&lt;/li&gt;&lt;/ul&gt;" style="rounded=1;whiteSpace=wrap;html=1;fillColor=light-dark(#C7E7C7,#FFFFFF);strokeColor=light-dark(#008000,#008000);strokeWidth=2;labelPosition=center;verticalLabelPosition=middle;align=center;verticalAlign=middle;" vertex="1" parent="Gm0eFK5Tj1ynwDgPu61h-32">
          <mxGeometry x="-9.6" y="24.44" width="177.6" height="73.33" as="geometry" />
        </mxCell>
        <mxCell id="Gm0eFK5Tj1ynwDgPu61h-36" value="" style="endArrow=classic;html=1;rounded=1;strokeWidth=2;" edge="1" parent="1">
          <mxGeometry width="50" height="50" relative="1" as="geometry">
            <mxPoint x="938.5" y="540" as="sourcePoint" />
            <mxPoint x="939" y="580" as="targetPoint" />
          </mxGeometry>
        </mxCell>
        <mxCell id="Gm0eFK5Tj1ynwDgPu61h-37" value="" style="group;fillColor=light-dark(#FFFFFF,#FFFFFF);strokeWidth=2;strokeColor=none;rounded=1;" vertex="1" connectable="0" parent="1">
          <mxGeometry x="568" y="580" width="471" height="100" as="geometry" />
        </mxCell>
        <mxCell id="Gm0eFK5Tj1ynwDgPu61h-38" value="&lt;b&gt;&lt;font style=&quot;color: rgb(255, 255, 255);&quot;&gt;Data Storage Layer&lt;/font&gt;&lt;/b&gt;&lt;div&gt;&lt;br&gt;&lt;/div&gt;&lt;div&gt;&lt;br&gt;&lt;/div&gt;&lt;div&gt;&lt;br&gt;&lt;/div&gt;" style="rounded=1;whiteSpace=wrap;html=1;labelPosition=center;verticalLabelPosition=middle;align=center;verticalAlign=middle;fillColor=light-dark(#2F4F4F,#FFFFFF);strokeColor=#666666;strokeWidth=2;" vertex="1" parent="Gm0eFK5Tj1ynwDgPu61h-37">
          <mxGeometry x="-326.81999999999994" width="797.8199999999999" height="66.66666666666666" as="geometry" />
        </mxCell>
        <mxCell id="Gm0eFK5Tj1ynwDgPu61h-54" value="&lt;b&gt;Audit DB&lt;/b&gt;&lt;div&gt;CS_CASE_ACTION&lt;/div&gt;" style="rounded=1;whiteSpace=wrap;html=1;fillColor=light-dark(#ADD8E6,#FFFFFF);strokeColor=#6600CC;strokeWidth=2;labelPosition=center;verticalLabelPosition=middle;align=center;verticalAlign=middle;" vertex="1" parent="Gm0eFK5Tj1ynwDgPu61h-37">
          <mxGeometry x="300.99999999999994" y="21.31515151515153" width="138.41632653061225" height="37.375757575757575" as="geometry" />
        </mxCell>
        <mxCell id="Gm0eFK5Tj1ynwDgPu61h-53" value="&lt;div&gt;&lt;b&gt;Card DB&lt;br&gt;&lt;/b&gt;FRAUD_HOTLIST&lt;span style=&quot;color: rgba(0, 0, 0, 0); font-family: monospace; font-size: 0px; text-align: start; text-wrap-mode: nowrap; background-color: transparent;&quot;&gt;%3CmxGraphModel%3E%3Croot%3E%3CmxCell%20id%3D%220%22%2F%3E%3CmxCell%20id%3D%221%22%20parent%3D%220%22%2F%3E%3CmxCell%20id%3D%222%22%20value%3D%22%26lt%3Bb%26gt%3BAlert%20DB%26lt%3B%2Fb%26gt%3B%26lt%3Bdiv%26gt%3BFRAUD_ALERT%26lt%3B%2Fdiv%26gt%3B%22%20style%3D%22rounded%3D1%3BwhiteSpace%3Dwrap%3Bhtml%3D1%3BfillColor%3Dlight-dark(%23ADD8E6%2C%23FFFFFF)%3BstrokeColor%3D%236600CC%3BstrokeWidth%3D2%3BlabelPosition%3Dcenter%3BverticalLabelPosition%3Dmiddle%3Balign%3Dcenter%3BverticalAlign%3Dmiddle%3B%22%20vertex%3D%221%22%20parent%3D%221%22%3E%3CmxGeometry%20x%3D%22229%22%20y%3D%22694.2727272727273%22%20width%3D%22138.41632653061228%22%20height%3D%2256.06363636363636%22%20as%3D%22geometry%22%2F%3E%3C%2FmxCell%3E%3C%2Froot%3E%3C%2FmxGraphModel%3E&lt;/span&gt;&lt;/div&gt;" style="rounded=1;whiteSpace=wrap;html=1;fillColor=light-dark(#ADD8E6,#FFFFFF);strokeColor=#6600CC;strokeWidth=2;labelPosition=center;verticalLabelPosition=middle;align=center;verticalAlign=middle;" vertex="1" parent="Gm0eFK5Tj1ynwDgPu61h-37">
          <mxGeometry x="112" y="21.32000000000005" width="138.42" height="38.03" as="geometry" />
        </mxCell>
        <mxCell id="Gm0eFK5Tj1ynwDgPu61h-50" value="" style="endArrow=classic;html=1;rounded=1;strokeWidth=2;" edge="1" parent="1">
          <mxGeometry width="50" height="50" relative="1" as="geometry">
            <mxPoint x="339" y="580" as="sourcePoint" />
            <mxPoint x="338.5" y="540" as="targetPoint" />
          </mxGeometry>
        </mxCell>
        <mxCell id="Gm0eFK5Tj1ynwDgPu61h-60" value="&amp;nbsp;Block &amp;amp; Reissue Request" style="edgeLabel;html=1;align=left;verticalAlign=middle;resizable=0;points=[];rounded=1;labelPosition=right;verticalLabelPosition=middle;" vertex="1" connectable="0" parent="Gm0eFK5Tj1ynwDgPu61h-50">
          <mxGeometry x="-0.1495" y="1" relative="1" as="geometry">
            <mxPoint x="11" y="-13" as="offset" />
          </mxGeometry>
        </mxCell>
        <mxCell id="Gm0eFK5Tj1ynwDgPu61h-56" value="" style="endArrow=classic;html=1;rounded=1;strokeColor=light-dark(#666666,#666666);strokeWidth=2;" edge="1" parent="1">
          <mxGeometry width="50" height="50" relative="1" as="geometry">
            <mxPoint x="469" y="450" as="sourcePoint" />
            <mxPoint x="558" y="450" as="targetPoint" />
          </mxGeometry>
        </mxCell>
        <mxCell id="Gm0eFK5Tj1ynwDgPu61h-57" value="Actions" style="edgeLabel;html=1;align=center;verticalAlign=bottom;resizable=0;points=[];rounded=1;labelPosition=center;verticalLabelPosition=top;" vertex="1" connectable="0" parent="Gm0eFK5Tj1ynwDgPu61h-56">
          <mxGeometry x="-0.2388" y="4" relative="1" as="geometry">
            <mxPoint as="offset" />
          </mxGeometry>
        </mxCell>
        <mxCell id="Gm0eFK5Tj1ynwDgPu61h-52" value="&lt;b&gt;Case DB&lt;/b&gt;&lt;div&gt;CS_CASE&lt;span style=&quot;color: rgba(0, 0, 0, 0); font-family: monospace; font-size: 0px; text-align: start; text-wrap-mode: nowrap; background-color: transparent;&quot;&gt;%3CmxGraphModel%3E%3Croot%3E%3CmxCell%20id%3D%220%22%2F%3E%3CmxCell%20id%3D%221%22%20parent%3D%220%22%2F%3E%3CmxCell%20id%3D%222%22%20value%3D%22%26lt%3Bb%26gt%3BAlert%20DB%26lt%3B%2Fb%26gt%3B%26lt%3Bdiv%26gt%3BFRAUD_ALERT%26lt%3B%2Fdiv%26gt%3B%22%20style%3D%22rounded%3D1%3BwhiteSpace%3Dwrap%3Bhtml%3D1%3BfillColor%3Dlight-dark(%23ADD8E6%2C%23FFFFFF)%3BstrokeColor%3D%236600CC%3BstrokeWidth%3D2%3BlabelPosition%3Dcenter%3BverticalLabelPosition%3Dmiddle%3Balign%3Dcenter%3BverticalAlign%3Dmiddle%3B%22%20vertex%3D%221%22%20parent%3D%221%22%3E%3CmxGeometry%20x%3D%22229%22%20y%3D%22694.2727272727273%22%20width%3D%22138.41632653061228%22%20height%3D%2256.06363636363636%22%20as%3D%22geometry%22%2F%3E%3C%2FmxCell%3E%3C%2Froot%3E%3C%2FmxGraphModel%3E&lt;/span&gt;&lt;/div&gt;" style="rounded=1;whiteSpace=wrap;html=1;fillColor=light-dark(#ADD8E6,#FFFFFF);strokeColor=#6600CC;strokeWidth=2;labelPosition=center;verticalLabelPosition=middle;align=center;verticalAlign=middle;" vertex="1" parent="1">
          <mxGeometry x="469" y="601.3151515151515" width="138.41632653061225" height="37.375757575757575" as="geometry" />
        </mxCell>
        <mxCell id="Gm0eFK5Tj1ynwDgPu61h-104" value="&lt;b&gt;Alert DB&lt;/b&gt;&lt;div&gt;FRAUD_ALERT&lt;/div&gt;" style="rounded=1;whiteSpace=wrap;html=1;fillColor=light-dark(#ADD8E6,#FFFFFF);strokeColor=#6600CC;strokeWidth=2;labelPosition=center;verticalLabelPosition=middle;align=center;verticalAlign=middle;" vertex="1" parent="1">
          <mxGeometry x="269.79" y="601.3151515151515" width="138.41632653061225" height="37.375757575757575" as="geometry" />
        </mxCell>
        <mxCell id="Gm0eFK5Tj1ynwDgPu61h-111" value="Data Collection --&amp;gt; Analysis &amp;amp; Detection --&amp;gt; Alert Generation --&amp;gt; Response &amp;amp; Feedback" style="rounded=1;whiteSpace=wrap;html=1;" vertex="1" parent="1">
          <mxGeometry x="210" y="700" width="870" height="30" as="geometry" />
        </mxCell>
      </root>
    </mxGraphModel>
  </diagram>
</mxfile>
